<svg xmlns="http://www.w3.org/2000/svg" viewBox="0 0 337.97 455.44"><defs><style>.cls-1{fill:#fff;stroke:#231f20;stroke-miterlimit:10;stroke-width:10px;}.cls-2{fill:#010101;}.cls-3{fill:#687173;}.cls-4{fill:#687172;}.cls-5{fill:#717472;}.cls-6{fill:#63696a;}.cls-7{fill:#666b6b;}.cls-8{fill:#646b6b;}.cls-9{fill:#191b1b;}.cls-10{fill:#fdcd9a;}.cls-11{fill:#282b2b;}.cls-12{fill:#0d1010;}.cls-13{fill:#333;}.cls-14{fill:#1c1d1c;}.cls-15{fill:#dd8e6a;}.cls-16{fill:#fbca98;}.cls-17{fill:#343434;}.cls-18{fill:#dc8d69;}.cls-19{fill:#1e1a17;}.cls-20{fill:#201b17;}.cls-21{fill:#101313;}.cls-22{fill:#0e1111;}.cls-23{fill:#7e3527;}.cls-24{fill:#7d3427;}.cls-25{fill:#84412f;}.cls-26{fill:#464646;}.cls-27{fill:#3d3d3d;}.cls-28{fill:#636666;}.cls-29{fill:#484848;}.cls-30{fill:#5a5a5a;}.cls-31{fill:#25211e;}.cls-32{fill:#282828;}.cls-33{fill:#535353;}.cls-34{fill:#575757;}.cls-35{fill:#111414;}.cls-36{fill:#494949;}.cls-37{fill:#5f5f5f;}.cls-38{fill:#5d5e5e;}.cls-39{fill:#505050;}.cls-40{fill:#5c5d5c;}.cls-41{fill:#343839;}.cls-42{fill:#555;}.cls-43{fill:#414141;}.cls-44{fill:#4c4c4c;}.cls-45{fill:#3c3c3c;}.cls-46{fill:#5b5c5c;}.cls-47{fill:#585858;}.cls-48{fill:#1c1915;}.cls-49{fill:#715b45;}.cls-50{fill:#5d5d5d;}.cls-51{fill:#4d4c4d;}.cls-52{fill:#fdcc9a;}.cls-53{fill:#faca98;}.cls-54{fill:#120e08;}.cls-55{fill:#cc6e53;}.cls-56{fill:#d1a980;}.cls-57{fill:#df906c;}.cls-58{fill:#e1946e;}.cls-59{fill:#e1946f;}.cls-60{fill:#e39771;}.cls-61{fill:#e59a73;}.cls-62{fill:#de8f6b;}.cls-63{fill:#676a6a;}.cls-64{fill:#656968;}.cls-65{fill:#666969;}.cls-66{fill:#646767;}.cls-67{fill:#131616;}.cls-68{fill:#626565;}.cls-69{fill:#393c3c;}.cls-70{fill:#5a5d5d;}.cls-71{fill:#5c5f5f;}.cls-72{fill:#3c403f;}.cls-73{fill:#5f6262;}.cls-74{fill:#5b5e5e;}.cls-75{fill:#3a3e3e;}.cls-76{fill:#4c4f4f;}.cls-77{fill:#555757;}.cls-78{fill:#414343;}.cls-79{fill:#5e6161;}.cls-80{fill:#833b2b;}.cls-81{fill:#7e3427;}.cls-82{fill:#c98d6a;}.cls-83{fill:#b97c5c;}.cls-84{fill:#cf795b;}.cls-85{fill:#494c4c;}.cls-86{fill:#505353;}.cls-87{fill:#0b0907;}.cls-88{fill:#080604;}.cls-89{fill:#853c2d;}.cls-90{fill:#8c4232;}.cls-91{fill:#191510;}.cls-92{fill:#7d3426;}.cls-93{fill:#fdcc99;}.cls-94{fill:#fbfaf9;}.cls-95{fill:#f4c695;}.cls-96{fill:#5d3820;}.cls-97{fill:#edecec;}.cls-98{fill:#6d4e3a;}.cls-99{fill:#faf9f8;}.cls-100{fill:#f7c796;}.cls-101{fill:#5d371f;}.cls-102{fill:#eae9e8;}.cls-103{fill:#d3aa80;}.cls-104{fill:#6f4f3a;}.cls-105{fill:#b4906c;}.cls-106{fill:#e49771;}.cls-107{fill:#e29670;}.cls-108{fill:#ffca2b;}.cls-109{fill:#faa21c;}.cls-110{fill:#e77025;}.cls-111{fill:#ffca2a;}.cls-112{fill:#fffffe;}.cls-113{fill:#f99c1d;}.cls-114{fill:#fec25f;}.cls-115{fill:#e77125;}.cls-116{fill:#fec25e;}.cls-117{fill:#fec360;}.cls-118{fill:#fbac23;}.cls-119{fill:#fcb53e;}.cls-120{fill:#fbab1c;}.cls-121{fill:#fdbb48;}.cls-122{fill:#fcb023;}.cls-123{fill:#fec765;}.cls-124{fill:#ffd255;}.cls-125{fill:#ffce76;}.cls-126{fill:#fec238;}.cls-127{fill:#ffc96c;}.cls-128{fill:#fdb91e;}.cls-129{fill:#fcaf1b;}.cls-130{fill:#fde59c;}.cls-131{fill:#fffdf6;}.cls-132{fill:#fffef9;}.cls-133{fill:#f08322;}.cls-134{fill:#f08222;}</style></defs><g id="Layer_2" data-name="Layer 2"><g id="Layer_1-2" data-name="Layer 1"><circle class="cls-1" cx="168.99" cy="286.45" r="163.99"/><path class="cls-2" d="M85.9,423.21c-2-.21-4.39-1.1-4.66-2.8s2.38-2.35,3.91-3.16c6.9-3.68,14.79-2.92,22.12-4.75,2.67-.67,5.35-1.69,9.34-.89-2.37-3-2.8-6-6.82-4.68-1.62.55-2.82-1.41-4-2.58-6.07-6.11-9.08-13.71-10.86-22-.57-2.6-.09-5.82-4-6.77-.93-.22-1.54-2.78-1.86-4.35-1.67-8-3-16.08-1.25-24.22a13.75,13.75,0,0,0-3.17-12.51c-8.56-10-11.41-22.13-12.24-34.8a24.91,24.91,0,0,1,3.47-15.22c1.53-2.42,3.86-4.69,6.15-4.6,6.4.26,4.55-3.55,3.87-6.72-3.3-15.44-5.4-31-5-46.82.31-11.43,3.72-21.13,12-29.42,9-9,16.85-19.24,28.84-24.83,14.85-6.93,29.88-13.3,46.49-14.28,19.57-1.15,37.21,4.58,53.18,15.76.93.65,1.84,1.32,2.93,2.1,1.75-2.94-.92-4.7-1.39-7.56a23.51,23.51,0,0,1,15.9,13.26c2.6,5.48,5.62,10.17,10.33,14,8.64,7.08,12.18,16.81,12.51,27.61.58,18.89,1.09,37.84-5.88,56,9.31,1.21,13.55,5.84,14,15,.74,14.43-1.72,27.95-11.21,39.48a6.41,6.41,0,0,0-1.31,5.43c.5,3.92,1.94,8.09-1.23,11.86-.75.89-.21,2.9-.19,4.39.06,5.31.5,10.66-1,15.87-.63,2.17-.21,5.13-4.24,4.71-1.82-.19-1.51,2.22-1.65,3.54a51.32,51.32,0,0,1-3,12.55c-.78,2.07-.55,5.47-4.62,3.93-.7-.27-1.27.77-1.63,1.56-2.29,5.17-5.84,9.54-9.32,14.28,10.38,3.4,22.06.78,31.06,8.13-.78,1.69-2.29,2.07-3.62,2.71-8.76-.44-17.31-2.46-26-3.76-3.63-.55-6.87-.88-9.63,2.06a4.09,4.09,0,0,1-2.12,1.26c-7.94,1.32-11.54,7.68-15.81,13.34-2.18,2.88-4,6.13-7.6,7.66l-3.8.14c.39-4.69,5.42-6.28,6.79-10.42-5.58,2.72-15.26.22-14.09,11.36l-2.79.13c-1.39-.48-2.19-2.1-3.87-2a14.48,14.48,0,0,0-2.32.81,26.78,26.78,0,0,1-3.05.92c-2.51.32-3.7-2-5.58-2.83a5.86,5.86,0,0,0-2.36.08,8.63,8.63,0,0,1-1.83.06l-1.22,0c-1.85.11-1.6,2.3-2.89,2.94l-2.84,0c-.59-4.09-1.64-7.57-5.81-9.9-3.38-1.88-5.67-5.75-10.44-4.75,2,3.36,5,6.24,7.32,9.6.89,1.29,2.57,2.27,1.87,4.27l-3-.21c-5.23-2.21-7.9-7-11-11.25-3.68-5-8.19-9.09-12.82-13.13-2-1.74-4-1.92-6.46-1.45C106.44,419.37,96.05,420.66,85.9,423.21Z"/><path class="cls-3" d="M85.9,423.21c5-4.54,11.56-3.17,17.34-4.74,4.61-1.24,9.49-1.44,14.12-2.63,2.7-.69,4.19.33,6.23,1.72,9.84,6.74,15.14,17.54,23.38,25.68-18.93-2.55-37.12-7.56-54.11-16.47a14,14,0,0,1-1.69-5c.06.45-.86,1.32-.24,1.06.23-.09.34,0,.4.27.21.93.45,1.86-.49,2.57Z"/><path class="cls-3" d="M196.86,443l10-13c2.86-3.73,5-8.41,10.92-8a1.22,1.22,0,0,0,.85-.48c5.93-7.08,13.47-4.12,20.54-3.08,6.34.93,12.8,1.51,18.83,4A178,178,0,0,1,196.86,443Z"/><path class="cls-4" d="M150,443.45c-3.65-5.26-8.43-9.67-11.69-15.27,8.81-1.91,13,5.52,18.89,9.15,2.66,1.64-.83,4.53-.14,6.9C154.64,444.14,152.17,444.94,150,443.45Z"/><path class="cls-4" d="M185.76,444.12c-.77-1.78-3-4.23-2-5.22,2.65-2.63,6.15-6.06,9.32-6.06,3.51,0,6.07-2,9.77-2.45-2.61,5.26-6.52,8.79-9.81,12.79C190.76,444.49,188.28,444.45,185.76,444.12Z"/><path class="cls-5" d="M176.82,442.12c.5-.78,1.29-.8,2.09-.82,1.49.52,2.58,1.29,2,3.13-6.66.92-13.33,1.44-20,0-.39-1.88.14-3.32,2-4.08l1,.16c.84.38,1.43,1.16,2.34,1.4.89-.65,1-1.74,1.59-2.56,2.44.7,3.12,4,6,4C174.82,442.8,176.3,443.61,176.82,442.12Z"/><path class="cls-6" d="M163,440.33q-1,2-2,4.08l-1.08-.22C160.63,442.7,158.6,439,163,440.33Z"/><path class="cls-7" d="M180.93,444.43l-2-3.13c3.32-1.72,2.59,2.12,4.06,2.95Z"/><path class="cls-8" d="M90.84,425.7c.1-1.13.21-2.27.34-3.72a7.37,7.37,0,0,1,1.68,4.79Z"/><path class="cls-9" d="M99,309.58l1,2.86c3.94,8.82,5.81,18.34,9.29,27.3,1.62,4.18,2,8.79,6.41,11.82,2.19,1.51,2.88,5.11,4.06,7.83-.59.29.29-.17.2.45s.06.62.1.08c.11-1.62-.59-3.9,2.48-3.36,1.28,1.88,2.38,3,4.48.57,4.56-5.32,10.73-6.91,17.5-7.06,8-.17,15.95.41,23.92,1,9.15.63,18.23-1.21,27.42-1,8,.14,15.16,1.76,20.76,7.91,1.26,1.38,3.09,1.81,4.62,2.61,2-1.23.48-6.57,5.26-4.17.33.17,0,.23.25-.33a32.79,32.79,0,0,0,2.18-6.63c.51-2.27,3.24-1.13,4-3.76,3.21-11.18,5.81-22.56,10-33.43l.63-3.23c2.92,10.53,8.31,20.35,9.21,31.81-2.35-1.54-2-4.56-5-6,2.3,6.05,2.78,11.94,4,17.68-1.36,3.56.36,7.41-1,11-2.11-2.35-1.54-6.08-4.81-8.93-.28,10.94-.5,21.18-2.69,31.72-2.34-2-1.64-5.12-4.08-7.79-3.7,14-6.19,28.31-19.69,36.33-.33-.48-.58-.71-.64-1-.52-2.31,1.27-5.9-1.58-6.72s-3.19,3.13-4.74,4.87-2.94,4-4.67,5.79c-1.52,1.54-3.34,4.05-4.49-.67-.61-2.51-2.53-1.21-3.8.07a53.49,53.49,0,0,1-11.45,8.68c-9,5.17-17.25,4.94-25.23-1.92-1.23-1.06-2.43-3.56-4.46-1.83-1.59,1.36.75,2.95.7,5-5.74-1.73-9.24-6.07-12.94-10.1-.55-.6-.84-1.45-1.39-2.06-1.22-1.35-2.56-3.23-4.44-2.81-2.43.54-1.25,3-1.54,4.68-.1.6-.2,1.21-.37,2.16-8.54-3.88-14.33-10.54-20.23-17-2.67-2.92-4.9-6.24-7.3-9.41-.58-.78-1-2-2.17-1.59s-.85,1.65-.89,2.58c-.06,1.61,0,3.22,0,5.44-6-5.6-7.76-12.22-8.75-19.39-.93-6.75.66-13.67-2-20.61-2.45,2.25-2.55,5.51-4,9.42-2-11.3-2.22-21.41,1-31.45.59-1.83.37-1.78-.81-4.46-.36-.83.29-2.23.74-3.26A48.27,48.27,0,0,0,98,308.37C98.87,308.34,99.62,308.4,99,309.58Z"/><path class="cls-10" d="M111.66,277.33c-2,.08-4,.07-6,.28-6.55.67-6.56.69-5.64-5.73a16.31,16.31,0,0,1,.87-3.88c3.9-9.69,1.78-19.55,1-29.4-.42-5.35.1-10.69,2.56-15.56,5.54-10.93,21.13-15.22,31.94-9,5,2.88,8.68,7.22,12.65,11.22,4.32,4.34,9.25,9,15.31,8.39,9.35-.9,18.87,3.38,28-1,1.18-.57,2.45-1,3.61-1.61a14.69,14.69,0,0,0,2.14-1.84l-7.33-2.32c7-1.88,13.44-2.88,18.09-8.57-2.67-1.25-5.77-.38-7.5-2.83,7.35-5.28,20.44-5.33,29.53.08,9.52,5.68,14.21,14.55,12.64,25.2-1.41,9.59-.81,18.77.75,28.1.08.49.23,1,.3,1.47,1.14,8.25,1.14,8.22-6.91,7.34-2.14-.24-4.32-.23-6.48-.33-3-1.05-4.53-3.81-6.68-5.82a19.78,19.78,0,0,0-13.46-5.67c-6.35-.16-12.65,0-18.83,1.69a24.26,24.26,0,0,0-3.35,1c-1.49.68-3.7,1.37-3.22,3.22.56,2.19,2.8,1.09,4.27.76,5-1.14,10.1-2.14,15.2-2.93A32,32,0,0,1,225,272.88c1.3.66,3.2,1.55,2.76,3.1-.53,1.83-2.46.84-3.85.65-12.47-.64-24.9-.45-37.23,1.78a12.43,12.43,0,0,0-5.88,2.45c-6.21,5-11.74,5-18.21,0-2.9-2.28-6.43-2.77-9.82-3.16A176.57,176.57,0,0,0,120,276.62a7.42,7.42,0,0,1-5.09-.19c.33-2.32,2.14-3.2,3.85-4a31.35,31.35,0,0,1,17.92-2.93,169.44,169.44,0,0,1,17.6,3.32c1.08.28,2.54.72,3.07-.65s-.78-2.05-1.72-2.71a14.09,14.09,0,0,0-4.12-1.71c-7.11-2.13-14.4-2.33-21.72-1.8a17.86,17.86,0,0,0-11.06,5.18C116.41,273.27,114.42,275.74,111.66,277.33Z"/><path class="cls-11" d="M112.94,183.51a118.67,118.67,0,0,1,47.87-19.74c23-4.13,43.49,2.92,61.79,17,2,1.51,3.82,3.16,5.75,4.72.85.68,1.53,2.2,2.83,1.47s.7-2.06.31-3.16a4.18,4.18,0,0,1-.1-3.71c3.3,2.42,4.37,6,5.53,9.46a4,4,0,0,0-2.32,3.76c-.16,2.12-.91,2.18-4,1a9.82,9.82,0,0,1,0,10.74c-1.25,2-3.17.76-4.75-.41.62,1.3,2,2.52.73,3.9-.91,1-2.21.41-3.25-.07a26.49,26.49,0,0,0-17.9-1.65c-2.74.67-5.11.38-2.52-3.32l1,0c.23-.43.71-1.19.62-1.22a2.41,2.41,0,0,0-2.6.23c-7.74,6.13-8,10-.9,16,3,2.52-.44,2.15-1.1,3-7.16,2.5-13-.67-19.34-5.22,2.18,3.12,3.68,5.45,4.36,8.18,1.18,2.75,4.33,3.29,6.16,5.5-1.69,2.05-4,1.36-6.17,1.51-9.89-.24-17.72-5.2-25.4-11.13a10.91,10.91,0,0,1,2.4,5.14l3.6,6c-7.5-1.13-12.85-5.19-17.21-10.33a54.16,54.16,0,0,0-8.34-7.64c-3.14-4.39-3.53-9.49-4-14.68a2.62,2.62,0,0,0-.17.65c-1.29,7.2-1.27,7.13-8.33,4.5-2.27-.85-5-2.62-6.46,1.32-.14.37-.82.56-1.3.68-5.7,1.46-11.7,2.52-13.34,9.63-8.87,8-8.88,18.74-8.61,29.45.05,2.14.67,4.27.21,6.43-.2.94-1.36,2.46-1.61,1.95-1.56-3.07-6.09-1-7.17-4.29-3.83-11.61-4.61-23,2.13-33.14-.86.59-1.63,3.15-4.29,2.36-.09,0-.17-.24-.17-.37a2.11,2.11,0,0,1,.12-.48c.11-4.39,2.4-7.8,5-11.07.33-.28.68-.54,1-.79,1.39-.66,2.82-1.24,4.15-2,6.86-2.29,12.15-6.28,14.61-13.35a4.92,4.92,0,0,1,1.24-2.59C114.81,186.18,114.64,184.87,112.94,183.51Z"/><path class="cls-10" d="M119,360.39c-.92-1.75-1.57-3.74-2.85-5.14-1-1.11.75-5.81-3.53-3.06a6.84,6.84,0,0,1-.71-1.18c-4.51-12.69-9.48-25.24-11.94-38.57,7.18,7.82,17,7.19,26.23,7.75a86.2,86.2,0,0,0,26.1-2.68c4.8-1.2,7.85-3.95,8.84-8.9.43-2.1,1.31-4.11,1.69-6.21.93-5.06,4.49-6.78,8.95-6.89s7.51,2.18,8.21,6.9c.83,4.37,1.25,8.8,2,12.91-.12.94.85.18.19.26-.13,0-.13-.14-.14-.46a2.92,2.92,0,0,1,1-2.67c3.62,4.45,8.72,5.52,14,6.37a103.52,103.52,0,0,0,34.19,0A18,18,0,0,0,243,312.18c-1.39,11.06-5.51,21.41-8.5,32.05-.4,1.44-.64,3.84-1.46,4.09-6,1.79-2.76,8.6-7.09,11.2-1-.49-.29-2.47-1.65-3.67-.61,2.9-1.18,5.63-1.92,9.12-8.75-11-19.54-15.34-32.82-13.6-14.27,1.88-28.56.32-42.83-.1C137.5,351,129.61,353.6,124.5,362a11.29,11.29,0,0,1-2.71-5.17c-1.57-1.21-1.11.38-1.34,1C120.1,358.74,121.25,360.51,119,360.39Z"/><path class="cls-12" d="M202.94,203.51c.51.75-2.11,3.42,1.58,2.3,7.41-2.25,14.58-1.26,21.45,2.62.61-3.19-2.39-3.49-3.35-5.14.39-.88,1-.62,1.66-.56,2.07.18,4,3.91,5.41,1.86a8,8,0,0,0,.61-8.45,49.8,49.8,0,0,1-2.15-4.94c2.44.38,2.83,2.86,4.64,3.65,2.17-2.06.65-4.33.41-6.46,1.65-.76,2,2.5,3.72,1.12.66,1.33,1.33,2.65,2,4,2.73,6.9-.26,12-5.21,16.41a2.42,2.42,0,0,0,1,1.12c13,7.6,17.68,17,15.42,32.2-.35,2.36,2.23,2.67,1.8,4.6-.1-6.94,2.33-13.16,5-19.33,2,2.54,1.1,5.52.89,8.18-1,12.36-1.34,24.82-5.11,36.78-.6,1.91-.56,4.32-3.3,5.78-2.12-13.61-4.26-26.9-3.5-40.48a24.76,24.76,0,0,0-2.18-12.62c-7.19-14.52-20-18.21-34.18-16.22-3.36.47-6.87,1.09-10.18,3.09C198.31,208.75,199.38,205.67,202.94,203.51Z"/><path class="cls-12" d="M87,217.49c3.4.09,4-3.92,7.92-5-4.09,6.21-7.27,12-7.83,18.75s1.5,13,4,19.56c1.62-1.06.31-3.1,2-3.85,2,1.27,1.16,4.31,3.93,6.32-.87-14.84-2.51-29.46,10.56-39.67-.86-1.67-1.87.16-2.9-.74,3.86-5.9,10.27-6.95,16.41-8.47-.37-1.46-2.49-.44-2.4-1.92.06-1.07,1.2-.88,2-.94,4.84-.36,9.08,1.18,13.08,4.8.5-3.77-.06-7.27,3-10.14.52,6.09,2.06,11.66,3.31,17.3-10.75-8.45-28.47-5.33-36.17,5.89a30.24,30.24,0,0,0-4.56,21.92c1.34,8.49,0,16.44-1.57,24.54-.65,3.4-1.75,6.72-1.73,10.23,0,1.42-.33,2.78-1.9,3.11-2.32.49-2.32-1.68-2.57-2.89-1.6-7.91-3.19-15.84-4.42-23.83-1.63-10.53-1-21.17-1.08-31.77C86,219.52,85.88,218.32,87,217.49Z"/><path class="cls-11" d="M256.91,228.48c-.69,7.5-4.41,14.37-4.25,22.09-2.24-3.46-3.53-6.44-3.17-11,.77-9.61-2.24-22.5-15.24-27.45-1-.39-3.1-.11-2.86-2,.16-1.35,1.55-2,2.74-2.68,1.44-.79,2.23-1.08,2.58-3.63.43-3.2,1.91-6.7,2.2-10.27,2.55,2.07,6.19,3,7,6.87a2.46,2.46,0,0,1-1.82,1.89c-.42.27-.94-.15-1.35.21l1,.13c2.61.64,3.93,2.71,5.41,4.61-.11-1.92-2.67-3.3-1.41-5.58,4.08,2.46,5.93,6.52,7.1,10.8A51.5,51.5,0,0,1,256.91,228.48Z"/><path class="cls-13" d="M184.84,281.54c3.34.54,6-1.86,9.23-2,1.84,1.1,4.06-.29,5.87.91l2.91-1.06c1.24.15,2.63-.06,3.35,1.35a1.35,1.35,0,0,1-.67,1.29c-3.44,1.44-7.19.47-10.75,1.51-8.51,2.46-9.88,4.1-9.45,12.94.06,1.16.25,2.31.21,3.48a4.72,4.72,0,0,1-1.63,3.5c-2.42-4.33-3.53-9.61-10.07-10.31-6.13-.66-11.52,2.15-13.28,8.07-.71,2.37-1,4.88-1.82,7.19-1.15,3.19-2.75,6.14-6.9,6a1.4,1.4,0,0,1,.44-2.23c2.05-.35,2.74-2,3.46-3.63.49-3.32,1-6.64,1.83-9.9.05-.67.11-1.33.21-2,1.18-7.8.24-9.5-7-12.58-4.45-1.59-9.07-1.21-13.65-1.33-2-.06-4.42.54-5.39-2.19,1.83-1.9,4.2-.83,6.32-1.13a31.91,31.91,0,0,0,5.44-.21,1.24,1.24,0,0,1,1.42.17c2.67.44,5.54-.88,8.05.93.63,1.31,2.22.06,2.95,1.11,3.81.23,5.68,3.93,9,5,1.49,1.2,3.49-.19,5,1l9.85-2.09C182,284.75,182.88,282.45,184.84,281.54Z"/><path class="cls-14" d="M111.66,277.33c10.28-13.65,30.3-17.72,44.86-9.19,2.12,1.24,3.48,3.18,3,5.26-.71,2.94-3.36,1.24-5.05,1-5.87-1-11.66-2.5-17.54-3.45-7.83-1.27-15,.69-22.35,5.4l5.4.32C117.31,278.28,114.44,277.24,111.66,277.33Z"/><path class="cls-14" d="M223.92,276.63l4-.4c-9.18-6.61-18.86-6.46-28.84-4.34-4.06.86-8.1,1.82-12.16,2.67-1.26.27-2.8.72-3.57-.74-.69-1.3.16-2.61.78-3.76.85-1.56,2.4-2.18,4-2.74a55.7,55.7,0,0,1,25.55-2.77c8.06,1.06,13.21,6.47,17.6,12.76C228.79,277.25,226.24,278.23,223.92,276.63Z"/><path class="cls-15" d="M92.8,302.58c.46,6.36.81,12.74-1,18.94-.44,1.48-.09,3.85-2.68,4.07-7.93-5.54-11.48-26.95-5.66-34.19,5.23.8,6.42,3.16,4.35,8.55-.9,1.22-.68,2.76-1.15,4.1A8.06,8.06,0,0,0,86,305.8c-.1.66-.08,1.13,0,.47,0,0,0,0,.06,0,.26-1.5,1.08-2.84,1-4.39.53-1.43,1.12-2.95,3-2.83C92.17,299.13,92.27,301.08,92.8,302.58Z"/><path class="cls-16" d="M83.93,291.55c-3.28,5.78-2.44,12-1.31,18a48.83,48.83,0,0,0,6.47,16.07c1.44,1.86.22,3.2-1.08,5-9.12-12-11.7-25.16-9.74-39.51a6.39,6.39,0,0,1,.39-.91c1.19-3.65,3.37-6.41,7.52-5.67,4.49.79,3.59,4.75,3.77,7.93-1.65,1.26-2.66-.07-3.84-.89C85.43,291.1,84.67,289.9,83.93,291.55Z"/><path class="cls-13" d="M205.92,281.4v-.93c6.69-2,13.48-.9,20.24-.61,2,.22,4.09.06,6.14.11a30.7,30.7,0,0,1,4.93,1c1.88.28,3.87-.48,5.69.52l4,0c1.74.72,2.33,2.28,2.89,3.88.44,4.7-.53,8.77-4.33,12.07-2.63,2.28-2.94,5.8-3.77,9-1.21,4.67-2.92,9-8.93,9-.2-3.59,4.36-4.26,4.62-7.58,2.7-4.6,2.65-9.87,2.81-14.84.18-5.79-4.52-10.12-12.7-10.17-5.34,0-10.67,0-16,0C209.56,282.8,207.46,283.13,205.92,281.4Z"/><path class="cls-17" d="M111.05,314.45c-3.59,2.47-5.48-.41-7.25-2.59s-2.21-4.77-2.84-7.35c-.9-3.72-1.76-7.37-5.56-9.52-1.66-.94-3.51-11.13-2.21-12.14,1.87-1.45,4.49-1.11,6.82-1.4,1.77-1.4,4.17.57,5.9-1.08,1.18-1.31,2.71-.87,4.16-.85,2.63.88,5.33.33,8,.35,1.61-.44,3.21-.69,4.74.26.17,3.28-2.47,2.44-4.11,2.56-3.3.23-6.64,0-9.78,1.38-3.49,1.56-5.54,4.08-5.6,8.05-.08,5.81-.43,11.67,3.23,16.76C107.82,310.91,110.12,312.13,111.05,314.45Z"/><path class="cls-16" d="M252,294.34c-.59-1.92.45-3.59,1-5.29.57-1.95.69-4.45,3.65-4.62a6.37,6.37,0,0,1,6.51,3.59c3,5.46,2.16,11.32,1.7,17.06-.8,9.81-4.2,18.14-9.45,23.94-.44-1.65-1.47-2.87-1.22-4.55-.12-2.76,1-5.18,2.08-7.6a35,35,0,0,0,2.21-24.26c-.47-.35,1-2.49-1.16-1.26C255.53,292.36,254.64,294.89,252,294.34Z"/><path class="cls-18" d="M258.91,291.51c3.51,6.65,2.48,13.56.61,20.27-1.23,4.38-3.54,8.47-5.37,12.69-3.14-7-4.93-14.23-4.14-22,.69-1.57.71-3.78,3.34-3.49,3.73,3.1,2.91,7.27,3,10.6a17.47,17.47,0,0,0-2.76-11.82C253.69,294.29,254.93,291.74,258.91,291.51Z"/><path class="cls-19" d="M237.92,308.48c.66,4.07-4.12,4.12-5.13,7l-1.89-1c-1.21,2.15-3.3,1.29-5.08,1.5-2.12.49-4.21,1.24-6.45,1H205.92A27.51,27.51,0,0,1,202,316c-1.52-.2-3.05,0-4.58-.13-1.71-.38-3.44-.71-4.8-2-3-.79-6.32-1.27-6-5.64a2.17,2.17,0,0,1,1.94-1.19c16.32,8.76,32.65,8.84,49,.11A.74.74,0,0,1,237.92,308.48Z"/><path class="cls-20" d="M158.91,299.42c-1.55,3.18-1.42,6.68-2,10.05-1.54.72-2.44,2.3-4,2.94a2.36,2.36,0,0,0-1,2l-2-.93c-.72,1.77-2.45,1.82-3.93,2.29s-3.63-.83-4.68,1.38l-2.29.23c-1.75-1-3.66-.26-5.49-.49h-9.84a11.31,11.31,0,0,1-5.51-.89c-1.66-.46-3.83.7-5-1.53l-1.14-.05c-.21-1,.44-1.47,1.24-1.8,7.29.54,14.59.39,21.89.43a42.93,42.93,0,0,0,9.37-1.18c6.73-1.46,10.4-5.48,10.94-12.35C156.49,297.07,157.68,297.74,158.91,299.42Z"/><path class="cls-21" d="M92.76,206.52l-.8-.1c1.87-5.4,7.24-7.29,11-10.84a32.11,32.11,0,0,1,4.41-3c-.71-1.69-1.72.31-2.71-1a54.64,54.64,0,0,1,8.32-8.09c1.22,2,3-.93,4.35.56-.83,2.59-4.37,3.43-4.37,6.58-5.17,4.74-9.12,11-16.23,13.34C95.29,204.7,94.13,205.78,92.76,206.52Z"/><path class="cls-22" d="M161.93,225.49a17.11,17.11,0,0,1-4.48-8.34c7.66,7.78,17.3,11.58,27.48,14.33-6.7,2-12.27-.73-17.69-4.19C165.64,226.27,164.52,223.68,161.93,225.49Z"/><path class="cls-22" d="M184.94,224.47c-2.39-3.05-5.07-5.94-6.27-11.14,6.76,5.51,13.24,9.11,21.25,8.18-3.88,2.35-8.18,2-12.44,1.93C186.42,223.41,185.12,222.48,184.94,224.47Z"/><path class="cls-23" d="M83.93,291.55c-.5-.74-2.06-1-1.56-2.11.76-1.65,1.9-.25,2.82.08,1.78.64,2.46,3.09,4.76,2.94a19.41,19.41,0,0,1,2.85,10.12c-1.59-1.48-3.08-5.85-4.93-.18-1.84,0-1.44-1-.92-2C88.69,296.5,87.82,293.51,83.93,291.55Z"/><path class="cls-24" d="M258.91,291.51a10.8,10.8,0,0,0-4.86,5.62c.53,1.19-.13,1.77-1.13,2.19L250,302.51c-.42-3-.21-5.82,2-8.17,2-1.67,3.88-3.39,5.9-5,.71-.55,1.88-1.25,2.49,0S259.42,290.78,258.91,291.51Z"/><path class="cls-25" d="M183,312.45c-.43,2.54,1.42,5,0,8.62-3.15-6.49-3.26-12.54-3-18.66Q181.49,307.42,183,312.45Z"/><path class="cls-26" d="M227,280.41l-21,.06c-1.13,0-2.35.15-3.07-1.07,2.22-1.63,4.74-.71,7.14-.85a29.87,29.87,0,0,0,10.83,0c2.1-.17,4.19-.24,6.1.91.31.19.42.39.33.61S227.06,280.41,227,280.41Z"/><path class="cls-27" d="M187,308.42c.64,3.34,3.57,4,6.07,5.15.28.45.2.78-.29,1-6.46-.76-8.18-2.92-8.83-11.09.07-1.08-.19-2.25.94-3C186.89,302.76,188.05,305.29,187,308.42Z"/><path class="cls-28" d="M247.73,201.62c.67,2.81,3.86,4.72,2.91,8.48-3.17-1.73-3.95-5.95-7.59-6.77-.68-1.07.35-1.29.87-1.77l2-1.2Z"/><path class="cls-29" d="M123,280.5l-5.07-.1c-.32-.23-.42-.46-.3-.67s.23-.32.34-.32c1.5-1.48,3.36-.79,5.09-.85a30.26,30.26,0,0,0,10.82,0l5-.07a1.33,1.33,0,0,1,.64.92,1.54,1.54,0,0,1-.54,1l-7,.06A7.69,7.69,0,0,1,123,280.5Z"/><path class="cls-30" d="M204.93,316.5l14.95.05c.35.17.46.34.35.52s-.23.26-.34.26l-14.88,0c-.28-.15-.39-.32-.32-.51S204.85,316.5,204.93,316.5Z"/><path class="cls-31" d="M113.38,313.21,112,314.45h-.92c-2.37-.48-3.22-2.88-5.07-4,.32-.62.64-1.24,1.44-1.34C109.81,309.88,112.2,310.67,113.38,313.21Z"/><path class="cls-32" d="M250.88,363.42c.54-3.64-1.12-7.49,1-11,0,3.86,0,7.72,0,11.59,0,.1-.18.21-.28.31Z"/><path class="cls-33" d="M133.86,278.57a14.27,14.27,0,0,1-10.82,0Z"/><path class="cls-34" d="M123,316.54l10.92,0c.35.17.46.34.35.52s-.22.26-.34.26H123c-.35-.18-.46-.36-.35-.53S122.88,316.54,123,316.54Z"/><path class="cls-33" d="M220.82,278.57a14.25,14.25,0,0,1-10.83,0Z"/><path class="cls-35" d="M201.92,202.5a7.31,7.31,0,0,1,5.38-1.76c-.5,1.95-2.23,2-3.4,2.75A2,2,0,0,0,201.92,202.5Z"/><path class="cls-36" d="M184.84,281.54c-1.51,1.5-2.05,4.29-5.05,3.82C181.18,283.69,182.3,281.69,184.84,281.54Z"/><path class="cls-37" d="M192.74,314.56c.09-.33.19-.66.29-1,1.16.92,3,.47,3.86,2v.55C195.18,316.5,193.44,316.92,192.74,314.56Z"/><path class="cls-38" d="M118,279.41c0,.33,0,.66,0,1-2.6-.41-5.42,1.07-7.84-.89Z"/><path class="cls-39" d="M219.89,317.33a6.77,6.77,0,0,0,0-.78l6.05-1c.31.21.41.4.3.59s-.22.29-.32.29A9.44,9.44,0,0,1,219.89,317.33Z"/><path class="cls-40" d="M105.91,280.37a1.25,1.25,0,0,1,.45.14,5.73,5.73,0,0,1,.54.56l-6.89.38C101.71,279.66,104,280.76,105.91,280.37Z"/><path class="cls-41" d="M167.87,439.33c-.22,1.83.58,4-1.88,5a4,4,0,0,1-.24-3.79Z"/><path class="cls-42" d="M141.19,317.18c.63-3.4,3.29-1,4.86-1.69.93-.46,1,0,.85.76C145,316.53,143,316.17,141.19,317.18Z"/><path class="cls-42" d="M146.9,316.25l-.85-.76c.82-1.48,2.72-.91,3.75-2C149.85,315.5,148.93,316.46,146.9,316.25Z"/><path class="cls-29" d="M123,316.54a5.21,5.21,0,0,0,0,.79c-1.72,0-3.58.68-5-.89-.33-.16-.45-.33-.36-.53s.19-.3.29-.3Z"/><path class="cls-43" d="M236.94,281.42a6.36,6.36,0,0,1-4.05-1c-.31-.18-.42-.38-.33-.58s.19-.32.29-.32c1.42,0,2.94-.48,4.05.91q.53.3.36.63C237.16,281.31,237.05,281.42,236.94,281.42Z"/><path class="cls-44" d="M249.82,285.36c-1-1.29-1.93-2.59-2.89-3.88C250.12,281.11,250,283.19,249.82,285.36Z"/><path class="cls-45" d="M204.93,316.5a7.22,7.22,0,0,0,.08.8c-1.15.14-2.32.34-3.09-.87-.31-.14-.43-.31-.37-.5s.14-.32.23-.32C203,315.47,204.15,315.26,204.93,316.5Z"/><path class="cls-46" d="M232.85,279.54a5.43,5.43,0,0,1,0,.9l-5.94,0c0-.31,0-.62,0-.93Z"/><path class="cls-47" d="M236.94,281.42c0-.32,0-.65,0-1,2,.27,4.26-.8,6,1Z"/><path class="cls-48" d="M139,279.41a7,7,0,0,0-.09-.91c2,.23,4.27-.83,6.08.92l-1.06.07A5.62,5.62,0,0,1,139,279.41Z"/><path class="cls-49" d="M99,309.58l-1-1.21v-2.92C98.84,306.75,100.6,307.85,99,309.58Z"/><path class="cls-30" d="M117.89,315.61c0,.27.06.55.07.83-1.71-.43-4.3,1.37-4.85-1.94C114.51,315.73,116.27,315.33,117.89,315.61Z"/><path class="cls-46" d="M199.94,280.46c-1.95-.34-4.13.8-5.87-.91C196,279.81,198.24,278.53,199.94,280.46Z"/><path class="cls-47" d="M225.91,316.45c0-.3,0-.59,0-.88a10.81,10.81,0,0,0,5-1.13C230.23,317.57,227.7,316.1,225.91,316.45Z"/><path class="cls-50" d="M201.78,315.61a5.62,5.62,0,0,1,.14.82l-5-.33a5,5,0,0,0,0-.55Z"/><path class="cls-42" d="M169.94,287.45c-1.67-.25-3.59.71-5-1C166.65,286.64,168.56,285.74,169.94,287.45Z"/><path class="cls-37" d="M156,281.46c-1.1,0-2.21,0-3.31,0-.47,0-.9-.18-.5-.73.15-.21.56-.23.86-.34C154.06,280.52,155.32,280.14,156,281.46Z"/><path class="cls-51" d="M133.93,317.34a6.77,6.77,0,0,0,0-.78c1.69.09,3.57-.86,5,.85Z"/><path class="cls-6" d="M165.75,440.55l.24,3.79c-1.47-.87-1.05-2.73-2.05-3.85Z"/><path class="cls-7" d="M176.82,442.12c.06,2.88-1.52,1.84-2.92,1.22Z"/><path class="cls-52" d="M205.94,363.45a7.09,7.09,0,0,1,1.8,10.46c-5.82,7.6-13.81,11.62-23.3,12.46-4.05.35-5.78-2.53-6.79-5.95-.11-1.47,1.13-1.84,2.26-2.75-5.61,0-11,0-17,0,.9,1,2.18,1.33,2,2.54-3.13,6.48-5,7.34-12.18,5.39a34.77,34.77,0,0,1-16.91-9.86c-4-4.36-3.83-8.68.15-12.33A121.26,121.26,0,0,0,205.94,363.45Z"/><path class="cls-53" d="M141,361.38c2-1.94,4.44-1.08,6.56-.9a274.49,274.49,0,0,0,47.37,0c2-.17,4.28-1,6,.95-.25,2.8-2.5,3.28-4.58,3.77a109.49,109.49,0,0,1-50.15.16C144,364.83,141.69,364.1,141,361.38Z"/><path class="cls-54" d="M141,361.38c5.3,4,11.77,4,17.86,4.72a101.45,101.45,0,0,0,37.91-2.46,8.69,8.69,0,0,0,4.19-2.22,5.64,5.64,0,0,1,5,2,3.09,3.09,0,0,1-2.81,2.91c-20,3.59-40,6.06-60,0-2.46-.74-6.4,1.87-7.15-3C137.54,362.46,138.91,361,141,361.38Z"/><path class="cls-55" d="M164.91,380.2c-1.5-1.46-4.27-.74-5.48-3.44h22.76c-.08,3-3.45,2-4.54,3.66Z"/><path class="cls-56" d="M119,360.39c1.34-.92.62-2.43,1-3.6.53-1.44,1.18-1.37,1.74,0-1.92,1.7-.21,4-1.06,6C119.44,362.52,119.27,361.42,119,360.39Z"/><path class="cls-57" d="M202,247.52A111.61,111.61,0,0,1,147.89,249c-1.28-.28-2.6-.42-3.9-.62-.18-.89,0-1.42,1-1,7.25.67,14.5,1.55,21.78,2,11.49.64,22.81-1.32,34.15-2.78A2.12,2.12,0,0,1,202,247.52Z"/><path class="cls-58" d="M153.59,241.84c11.79,2.29,23.61,1.85,35.44.29C175.09,246.52,166,246.1,153.59,241.84Z"/><path class="cls-59" d="M166.56,278.46c-.55-3.66-2.12-7.22-1.4-11.63C168.17,270.84,166.55,274.74,166.56,278.46Z"/><path class="cls-58" d="M177,272.55v6.39c-3.13-3.3-1.25-6.43-1-9.43C178.41,269.84,177.24,271.35,177,272.55Z"/><path class="cls-60" d="M145,247.42l-1,1-7.11-1.27C139.66,246.71,142.44,245.66,145,247.42Z"/><path class="cls-61" d="M177,272.55c-.12-1.08.18-2.3-1-3.05.42-.77.83-1.55,1.76-3.31C177.89,269.16,178.41,271,177,272.55Z"/><path class="cls-62" d="M202,247.52l-1-.92c1.38-.06,2.79-.49,4.17.25C204.23,247.91,203.05,247.38,202,247.52Z"/><path class="cls-63" d="M152.84,199.5c2.61-14.62,9.54-21.41,25.22-23.79-3.94,4.08-7.75,7.25-9.95,11.66-1.25,2.49-2.8,5.23,2.95,3.23-2.58,4.06-4.68,7.4-6.08,11.75-3.2-4.91-1.9-9.56-1.15-14.22-4.62,1.54-8.4,7-10,14.16C151.25,202.16,152.81,200.56,152.84,199.5Z"/><path class="cls-64" d="M148.9,171.46c-6.68-.06-12,4-17.89,6.14a1.5,1.5,0,0,1-1.15.43c-.65-.23-1.14-.57-.82-1.38,13.07-7.1,26.84-11.79,42-11.75-6.94,2.73-14.25,4.45-21,7.7C149,172.94,148.68,172.44,148.9,171.46Z"/><path class="cls-28" d="M157,176.61c10-9.1,22-10.74,34.82-9-.36,2.51-2.3,1-3.49,1.3-1.75.38-3.64-.35-5.38.48-9.37.48-17.65,4.43-26,8.12-.31-.23-.41-.44-.29-.64S156.88,176.61,157,176.61Z"/><path class="cls-65" d="M204,191.28c-8.37-.69-15.68,1.8-22.6,8.5C185.08,189.25,194.67,186,204,191.28Z"/><path class="cls-66" d="M96,203.52a44.9,44.9,0,0,0,12.87-10.44c1-1.2,2.16-2.57,4.07-2.43-2.83,7.43-8,12.19-15.85,13.94C96,205,95.78,204.45,96,203.52Z"/><path class="cls-28" d="M141.26,203c-3.53-6.53-2-12.37,2.1-17.86C142.51,191.09,139.59,196.79,141.26,203Z"/><path class="cls-67" d="M228,195.6c-5.16-4.08-8.37-8.83-13.24-11.62C221.16,185,225.54,188.36,228,195.6Z"/><path class="cls-68" d="M217.87,181.75c-4.91-2.14-9.76-4.46-16.28-5.79,7.19-1.39,11.93,1,16.32,4.56A.72.72,0,0,1,217.87,181.75Z"/><path class="cls-69" d="M130,177.56l1,0c2.06,3.52-1.26,3.75-3,4.93-1-1-2,.83-3,0a2.68,2.68,0,0,1,.06-3.06C126.69,178.86,128.28,178.05,130,177.56Z"/><path class="cls-70" d="M183,169.43c2.62-2.27,6.24.43,8.87-1.78l6,.95c.31.16.43.35.35.55s-.19.32-.28.32Z"/><path class="cls-71" d="M117,192.47c1-1.56,1.09-3.68,3.41-4.75.35,2.41-1.57,3.4-2.4,4.89C117.61,193,117.27,193,117,192.47Z"/><path class="cls-72" d="M152.84,199.5c.23,1-.14,2.15,1,2.79,0,1,.11,2.27-1.14,2.32s-.68-1.23-.73-1.93C151.9,201.55,151.79,200.35,152.84,199.5Z"/><path class="cls-73" d="M148.9,171.46l1.15,1.14c-1.32,1.05-2.5,2.36-4.81,2.73A9.42,9.42,0,0,1,148.9,171.46Z"/><path class="cls-74" d="M130,177.56a5.87,5.87,0,0,1-5,1.89l4-2.8Z"/><path class="cls-75" d="M117,192.47l1,.14c-.05,1.26.06,2.58-1.37,3.29C115.31,194.55,116.7,193.57,117,192.47Z"/><path class="cls-74" d="M96,203.52l1.09,1.07a6,6,0,0,1-4.31,1.93A6.2,6.2,0,0,1,96,203.52Z"/><path class="cls-70" d="M217.87,181.75c0-.41,0-.82,0-1.23l2.89,2.3C219.07,183.56,218.49,182.62,217.87,181.75Z"/><path class="cls-76" d="M146.62,182.14a6.34,6.34,0,0,1-1.24,1.07c-.49.24-1-.06-.7-.65a3.35,3.35,0,0,1,1.26-1.3C146.61,180.86,146.65,181.43,146.62,182.14Z"/><path class="cls-77" d="M157,176.61c0,.32,0,.63-.06.94a2.38,2.38,0,0,1-2.64,1.65A4.27,4.27,0,0,1,157,176.61Z"/><path class="cls-78" d="M197.91,169.47a8.06,8.06,0,0,0-.07-.87l3.21,1.26C199.77,171,198.79,170.57,197.91,169.47Z"/><path class="cls-79" d="M125,182.51c1-.16,2-1.76,3,0C127,181.82,125.94,186.14,125,182.51Z"/><path class="cls-80" d="M175.87,347.35q-4.45,4-9.07.17a11.35,11.35,0,0,0-8.87-3.06c-2.58.21-4.47-.56-5.43-3.24-1.16-3.18-.1-5.65,2.26-8.41a36.35,36.35,0,0,0-.74,5.31c0,2.69.93,4.74,4.24,3.5,3.65-1.36,6.45-.1,8.87,2.59,2.44,2.47,5.18,1.52,7.92.72a1.66,1.66,0,0,1,1.2.54A1.5,1.5,0,0,1,175.87,347.35Z"/><path class="cls-81" d="M174.94,344.38c2.71-2.62,5.45-3.91,9.63-2.8,5.29,1.4,3.39-3.41,4.11-6.28,2.79,1.93,1.72,4.39,1,6.47-.93,2.67-3.29,2.93-5.76,2.52-2.82-.72-5.1,2.42-8,1.1l.05.05C175.6,345.1,175,345,174.94,344.38Z"/><path class="cls-82" d="M157.93,344.46c4.2-2.59,6.73-.34,8.87,3.06A26.79,26.79,0,0,1,157.93,344.46Z"/><path class="cls-83" d="M175.92,345.39c2.69-.22,4.87-4.1,8-1.1-2.39,1.78-5.27,2.3-8,3.06C175.89,346.69,175.9,346,175.92,345.39Z"/><path class="cls-84" d="M174.94,344.38l1,1.06c-3.15,1-6.51,3.65-8.84-1.23Z"/><path class="cls-68" d="M243,209.41c2.48.94,3.74,2.91,5.44,6.46-3.68-2.75-6.15-4.89-9.43-5.42C239.69,207.81,241.47,209.19,243,209.41Z"/><path class="cls-85" d="M243,209.41c-1.35.29-3-.5-4,1-1.21-.08-2.66.41-3.38-1.67C238.19,208.46,240.61,207.81,243,209.41Z"/><path class="cls-86" d="M243.92,201.56l-.87,1.77c-.86-.3-2.42-.55-2.11-1.38C241.34,200.91,242.88,201.65,243.92,201.56Z"/><path class="cls-87" d="M187,308.42q-1.05-4-2.11-7.95c-3.65-12,1-18.29,14.14-19,2.3-.12,4.62-.06,6.93-.08l23,.08c-1.66,3.88-5.16,1.72-7.8,2.38-3.8.09-7.56-.64-11.43-.06-3.62.55-7.37.11-10.57.15,6.48.69,13.46-1.21,20.43.1,6.57,1.23,10.26,5,11.24,11.51-4.41,9.86-19,13.42-28.3,11.83A46.11,46.11,0,0,1,189.38,303c-1.48,1.19,0,3.06-1.26,4.11Z"/><path class="cls-88" d="M158.91,299.42c-1-.25-2-1.58-3,0a1.87,1.87,0,0,1-.89,2.12c-14.43,10.25-35.42,7.07-42.73-5.06-.52-6.89,4.22-11.67,12.29-12.43,8.93.4,18-.95,26.29.8.5.58.52.57.52.54-.15-.78-3-1.18-.34-2.34.23-.1.59.19.88.36,6.61,2.24,8.36,5.24,7.17,12.07A33.91,33.91,0,0,0,158.91,299.42Z"/><path class="cls-48" d="M152,283.44c-.38,2-1.84,2.05-3.47,2-8.24-.07-16.49-.08-24.73-.11.18-1.51,1.3-1.85,2.51-1.83,6,.08,11.92.74,16,.51-8.65-.61-19.2-.8-29.64,1.4-3.49.74-6.65,2.27-7.21,6.47,0,.54,0,1.08-.05,1.61-.81,5.42,1.8,10.48,1.65,15.83l-1,1.08c-5-6.42-4.53-13.93-3.63-21.26.54-4.4,6.07-7.37,12-7.76,2.89-.19,5.93,1,8.64-.91l9,0c3.21,1.93,6.73.74,10.1.91S148.89,281.6,152,283.44Z"/><path class="cls-39" d="M152.89,312.41c1-1.46,2-2.93,4-2.94C155.76,310.69,155.44,313.08,152.89,312.41Z"/><path class="cls-33" d="M139,279.41l4.93.08c-1.38,1.7-3.27.69-4.92.93C139,280.08,139,279.75,139,279.41Z"/><path class="cls-89" d="M87,300.38a2.21,2.21,0,0,0,.92,2q-.53,3-1.07,6c-2.41-.9-1.13-2.62-.91-4.11C85.86,302.85,85.82,301.46,87,300.38Z"/><path class="cls-90" d="M85.89,304.24c.28,1.38-.38,3,.91,4.11-.15.7.22,2.68-1.19.9C84.5,307.87,84.79,305.87,85.89,304.24Z"/><path class="cls-91" d="M220.63,282.6c2.71-.74,5.72.89,8.25-1.12,10.36,1.56,13.18,5.4,12.11,16-.4,3.86.24,7.94-3.07,11,0-.44-.11-.89-.16-1.33-1.86-3.16.12-6.24.18-9.36a10.45,10.45,0,0,0-.06-7.35c-2-5-6.33-5.25-10.72-5.69C224.87,284.52,222,285.72,220.63,282.6Z"/><path class="cls-92" d="M252.92,299.32c.38-.73.76-1.46,1.13-2.19,3.26,4.86,3.73,7.59,2.34,15.45C255.56,307.52,256,302.89,252.92,299.32Z"/><path class="cls-93" d="M239,297.51c.45,3.32-.88,6.42-1.23,9.64-3.41,5.34-9,6.6-14.58,7a98,98,0,0,1-22.76-.48c-5-.8-9.09-2.71-12.3-6.57-.61-2.13-1.23-4.26-2.1-7.3,15.77,8.76,30.53,10.13,43.83-3.38.57-.56,1.19-1.76,1.85-1.35,2.14,1.31,2.24-.47,2.85-1.6C239.38,292.34,239.46,292.42,239,297.51Z"/><path class="cls-93" d="M107,309.35a28.69,28.69,0,0,1-3-15.9c1.72-1.37,3.26-.7,4.75.43,1-.23-.71,2.66,1.52,1.27,1.13-.7,2,.37,2.65,1.29,13.12,12.21,28.58,13.29,43,3a10.74,10.74,0,0,1-5,11.49,22,22,0,0,1-9.43,2.95c-9.39.89-18.79,1.27-28.12-.68Z"/><path class="cls-94" d="M219.87,289.3c7.37,3.84,7.59,7.42.71,11.86-7.78,5-24.2,3.72-31.58-2.44-1.16-1-1.86-1.75-1-3.23,2-3.44,3.85-7.17,8.79-6.92,1.49,1.21,1.21,2.95,1.4,4.57.54,4.75,3.78,7.95,7.92,7.85a8.58,8.58,0,0,0,8.31-7.75c.19-1.4-.61-3,.79-4.19C216.78,289,218.35,288.71,219.87,289.3Z"/><path class="cls-95" d="M233.91,294.54c.25,1.18,2.66.36,2.08,1.93a1.56,1.56,0,0,1-2.77.26c-1.14-1.42-2.2-.78-3.37-.3a12.37,12.37,0,0,0-10.63-11.19c-7.39-1.22-14.89-.44-22.34-1.59l23.75-1c4.1,1.42,8.58.1,12.66,1.81,2.81,1.17,5.57,2.27,5.78,5.93.58,1.54.17,2.4-1.58,2.6C236.17,293.1,234.59,292.86,233.91,294.54Z"/><path class="cls-96" d="M215,289.47c1.77,4.24.44,7.82-2.74,10.64a8.77,8.77,0,0,1-10.55,1.23c-3.91-2.07-5.5-5.44-5-9.84.12-1,.08-2,.11-2.93l4.43.05c.91.65,1.6,1.37.91,2.58-2.11,1.66-.89,3.31.26,4.66a5,5,0,0,0,5.44,1.39,4.09,4.09,0,0,0,3-3.55,6.71,6.71,0,0,0-1-4.24A5.85,5.85,0,0,1,215,289.47Z"/><path class="cls-97" d="M202.15,291.2l-.91-2.58a4.42,4.42,0,0,1,1.43-.12c1.39.35,4-1.11,4,1C206.67,292.27,204,291.41,202.15,291.2Z"/><path class="cls-98" d="M215,289.47H209.9c3.3-1.85,6.63-1.55,10-.16Z"/><path class="cls-99" d="M146,288.51c5-.32,6.72,3.53,8.78,6.91.68,1.12.39,2-.64,3-6.59,6.42-24.5,7.76-32.37,2.32-6.47-4.47-6.1-7.88,1.26-11.48,1.51-.54,3.07-.26,4.6-.24,1.51,1.12.66,2.73.84,4.12.62,4.56,4,7.76,8.18,7.77s7.24-2.86,8-7.29C144.85,291.87,144.49,290,146,288.51Z"/><path class="cls-100" d="M113,296.44c-1-.4-2-1.14-3.14.06-1,1-2.58,1.59-3.19,0-.53-1.35,1.9-.83,2.32-2-1-2.24-3.15-1.68-4.9-2.14-.7-4.6,2.11-6.76,5.86-7.92,5.79-1.79,11.83-1.45,17.78-1.6a144.58,144.58,0,0,1,18.37.59c-7.38,1.78-15,0-22.31,1.89C117.33,286.26,113.21,290.49,113,296.44Z"/><path class="cls-101" d="M146,288.51c0,3.72.79,7.56-2.22,10.72A9.52,9.52,0,0,1,131.6,301c-3.91-2.28-5.26-6.39-3.77-11.47,1.13-.92,2.45-.4,3.69-.48a1.91,1.91,0,0,1,1.5,2.31c-2,1.87-1.11,3.57.46,5a4.28,4.28,0,0,0,5.45.43c3.2-2,2.44-5,1.56-7.84C142.41,288.13,144.19,288.45,146,288.51Z"/><path class="cls-102" d="M133,291.32l-1.21-1.85c-.26-.29-.32-.52-.16-.7a.55.55,0,0,1,.41-.23h5.44C137.26,291.81,135.17,291.61,133,291.32Z"/><path class="cls-103" d="M156,291.43l-2.54-3.33c1.81-.78,2.8-.09,3.62,1.16C157.4,290.33,157.9,291.48,156,291.43Z"/><path class="cls-104" d="M132.06,288.54c-.07.31-.15.62-.25.93l-4,0-4.85-.22C125.86,287.25,129,288.84,132.06,288.54Z"/><path class="cls-105" d="M156,291.43c1-.4.93-1.34,1.08-2.17,1,1.18,1.5,2.58.32,3.72C157,293.38,156.2,292.23,156,291.43Z"/><path class="cls-106" d="M104.06,292.4c2.17-1.3,4.2-.35,5.84.85,1.14.84-.28,1.06-.94,1.29l-4.91-1.09Z"/><path class="cls-107" d="M233.91,294.54c-2.44-.8-.68-1.16.15-1.69,1.59-1,4.47.56,5-2.51a9.29,9.29,0,0,1-.08,7.17C239.3,293.09,237,293.21,233.91,294.54Z"/><path class="cls-108" d="M145.44,102.11c2.3-.58,3.62-2.45,5.06-4,5.82-6.46,9.44-14.21,12.71-22.13a188.1,188.1,0,0,0,9.61-31.59c.23-1,.68-2-.26-3a22.74,22.74,0,0,1,9.26,0c-.73.47-1.32.86-1,2,5,18,10.58,35.76,21.33,51.37,1.57,2.29,3.46,4.36,5.21,6.53.51.77,1.57.35,2.14,1,6.94,5.41,12.48,6.72,23.53-1.91,2.25-1.75,4.06-4,6.7-5.3,5-3.5,8.48-8.34,12.18-13,6.49-8.12,12.49-16.6,18.3-25.22,3.06.62,3.47,1.52,1.65,4.22-6.08,9-12.68,17.69-19.58,26.1A122.07,122.07,0,0,1,232,106.81a30.1,30.1,0,0,1-7.87,4.24c-5.28,2-10.21.87-14.88-2-5.6-3.49-9.72-8.4-13.4-13.74a82.41,82.41,0,0,1-10.52-21.4,19.93,19.93,0,0,0-.66-2.61c.48,1.14.49,2.79,1,4.33C189,87.35,192,99.22,197.69,110.14a44.36,44.36,0,0,0,8.86,12.39c5.3,4.9,11,5.57,17.18,1.89a55.32,55.32,0,0,0,12.12-10.19c10.6-11.41,19.27-24.25,27.44-37.45,3.2-5.15,6.59-10.18,9.59-15.46,1.51-2.64,4-2.59,7.24,0a3.43,3.43,0,0,0-1.6,2.28Q272,82.1,265.45,100.63a5.49,5.49,0,0,0-.35,1.94c-.63,1.29-.35,2.9-1.41,4l-.36,1.64c-.28.43-.17,1-.48,1.42-1.65-.47-.68,1.24-1.32,1.61-7.56,12.21-15,24.52-23,36.45-.63.93-1.18,2-2.59,2A408.4,408.4,0,0,0,189.43,143a243.15,243.15,0,0,0-36-.34c-14.94.92-29.59,3.51-44.19,6.59a5.73,5.73,0,0,1-2.57.14A2.16,2.16,0,0,1,105.3,148C99,134.64,91.76,121.77,85.87,108.24a4.47,4.47,0,0,0-2.07-2.74,3.18,3.18,0,0,1-.44-1.14c-1.17-5.51-3.07-10.81-4.52-16.24-3-8-5-16.35-7.45-24.53-.25-.83-.54-1.64-.81-2.46,3.28-2,4.46-1.65,6.28,1.8,6,11.4,11.92,22.87,19.35,33.46,5.49,7.81,11.27,15.37,18.21,22a35.74,35.74,0,0,0,10,6.74c7.16,3.23,14.83,1.45,21.26-4.45,7.85-7.19,12.12-16.51,16-26.11,1-2.5,1.77-5.08,2.78-7.58.75-1.22.92-2.69,1.34-3.41a18.68,18.68,0,0,0-1,2.56,51.5,51.5,0,0,1-12.26,17c-5.74,5.13-12.25,8.7-20.15,8.9-4.65.11-8.9-1.56-12.81-3.93-7.56-4.57-13.91-10.52-19.76-17.11A209.63,209.63,0,0,1,78.6,62.19c-2.3-3.7-1.94-4.52,2.46-5.82,6,10.95,13.55,20.88,21.59,30.42a114.22,114.22,0,0,0,9.79,10.13c1.63.08,2.63,1.35,3.92,2.09a37.08,37.08,0,0,0,9.27,5.7c6.37,2.84,12.32,2.06,18-1.68A4.76,4.76,0,0,1,145.44,102.11Z"/><path class="cls-109" d="M87,175.27l0-1a3.33,3.33,0,0,1,0-2.89c.59-1.92-.35-4,.6-5.91.31-.62.46-1.22,1.22-1.38,3.76-2.1,8-2.66,12.1-3.68a279.31,279.31,0,0,1,48.54-7.12,327.74,327.74,0,0,1,46.16.37,337.09,337.09,0,0,1,56.16,8.88,10.3,10.3,0,0,1,3.79,1.34c.63.43.51,1.22.86,1.79l0,0A37.25,37.25,0,0,1,255.8,180l0,0c-.74.84.34,2.15-.77,2.89-1.22,6.89-4.82,12.92-7.17,19.4-1.47,4.06-5.28-4.61-4.22-4.61,10.42,10.37-4.21,3-5.45,3.43-1.61-1.52.12-2.32.79-3.22,2.39-3.19-.59,5.06-2.62,1.8-3.76-4.56-9-6.09-14.48-7.07a305.41,305.41,0,0,0-39.25-4.36c-21.5-1.08-42.63,1.14-63.64,5.37-4.37.88-8.69,2-11.55,5.85-12.55.88-7.5-6.32-4.53-2.88.83,1,2.22,1.78,1.22,3.41-3.45-1.49-7.29-2.1-10.11-5-2-2-3.69-4-4.41-6.9-.89-3.55,1.64,5.95.62,2.35s-2.44-7.2-2.74-11C86.83,178.13,87.65,176.61,87,175.27Z"/><path class="cls-109" d="M81.06,56.37c-1.18.93-3.17,1.75-3.31,2.81s1.33,2.62,2.17,3.91a228.46,228.46,0,0,0,20.31,27.18c5.77,6.52,12,12.45,19.45,17,9.84,6,17.64,5.28,27.75-1.13,7.82-5,12.68-12.39,17-20.26,1.07,0,1,.5.6,1.18-2.93,9.26-6.54,18.24-12,26.32a36.52,36.52,0,0,1-11.69,11.31c-7,4.11-13.65,3.57-20.38-.51-8.67-5.26-14.62-13.16-20.69-21-9.31-12-16.41-25.27-23.31-38.66-1.51-2.94-2.84-4.86-6.36-3.37C59.82,63,49,55.64,47,45c-.15-.73-.53-1.5.32-2.07,1.82.72,2.07,2.65,3,4a15.58,15.58,0,0,0,17.81,6.1c7-2.33,11.31-8.28,11.13-15.43C79,28.77,70.35,21.59,61.49,22.81c-1.27.17-2.91,1.47-4-.48,6.36-3.87,16.11-3.27,22.27,1.36A21.15,21.15,0,0,1,87.45,46,22,22,0,0,1,81.06,56.37Z"/><path class="cls-109" d="M185.86,73.73a76.63,76.63,0,0,0,6.41,14.43c3.77,7,8.25,13.44,14.59,18.33,9,6.94,15.57,6.45,25.13-.64,13.36-9.92,23.34-23,33-36.31,2-2.8,3.92-5.71,6.09-8.39,1.61-2,1.47-3.26-.87-4.27-4-3.93-7.08-8.28-7.57-14.13a20.07,20.07,0,0,1,3.69-14.11c1.54,1.1.19,2.22-.08,3.22-2.59,9.62,2.17,17.89,11.78,20.32,7.18,1.81,15.23-2.48,18-9.58a15.58,15.58,0,0,0-6.93-19.14c-1.23-.66-3.2-.59-3.28-2.69.79-.83,1.69-.55,2.59-.27a20.15,20.15,0,0,1,15.92,21.36c-.14,1.34-.3,2.68-.45,4-.48,1.15-.28,2.57-1.35,3.5a3.32,3.32,0,0,0-1,2.13A5.36,5.36,0,0,1,299.61,54l-2.74,2.76a5.33,5.33,0,0,1-2.52,1.84c-3.17,1.71-6.45,3.07-10.15,3a1.35,1.35,0,0,1-1.73,0l-2.35-.33c-5.61-1.33-5.55-1.29-8.57,3.61-8,12.88-15.8,25.88-25.08,37.89-5.93,7.66-12.17,15.09-20.11,20.84-9.8,7.09-17.31,4.05-23.62-4.2-8.26-10.81-12.31-23.55-15.67-36.5-.64-2.48-2-4.79-1.79-7.48C185.1,74.75,184.41,73.88,185.86,73.73Z"/><path class="cls-109" d="M84,104.36l.16,1.28c1.43.81,1.39,2.48,2.15,3.68,1.87,5.78,3.2,11.71,4.54,17.61,1.59,6.95,3.6,13.8,5,20.78.42,2,1.44,2.32,3.31,1.93,2.19-.45,4.3-1.89,6.68-.84l13.25-2.48q13.11-2.43,26.38-3.94a226.88,226.88,0,0,1,34-.93,256.5,256.5,0,0,1,31.12,3.15c7.46,1.2,15,2.09,22.36,3.68,1.31.28,2.58.74,3.86,1.12,2.93-.56,5.73.44,8.57.8,3.44.43,3.66.39,4.67-3,1.17-4,2.3-8,3.6-11.88.31-1,.35-2.19,1.78-2.31,1.21.56,1,1.53.72,2.5-.55,1.89-.31,3.91-1,5.79l0,0c-.7,1.07.24,2.43-.61,3.48l0,0c-.68,1.1.21,2.45-.58,3.53l-.12.16.1.18c-.61,1.17.23,2.57-.58,3.71l-.1.16.1.17c-.61,1.37.2,2.92-.53,4.28l-.51,1.7c-1.11.84-2.23.25-3.31,0a287.92,287.92,0,0,0-47.89-9.26,160.6,160.6,0,0,0-21-1.37c-6.55.15-13.08-.21-19.63,0A238.8,238.8,0,0,0,97.16,158c-1.56.47-3.07,1.2-4.78.89-1.07-.89-.08-2.26-.75-3.25-.23-1.88-.46-3.75-.68-5.63-.55-.94.1-2.06-.49-3l-.09-1.06c-.55-.93.1-2.06-.49-3,0-.35,0-.7-.08-1-.57-.94.09-2.07-.49-3L87,125.74c-.74-.92,0-2.12-.58-3.07-.56-2.63-1.13-5.27-1.7-7.9-.82-.87,0-2.08-.62-3l0,0a19.45,19.45,0,0,1-1-5.17C83.06,105.75,82.47,104.64,84,104.36Z"/><path class="cls-108" d="M285.91,21.15c4.55,1.88,8.39,4.48,10.49,9.22a16.55,16.55,0,0,1-6.93,20.84,16.83,16.83,0,0,1-22.41-5.88c-2.86-4.73-2.79-9.57-1.23-14.6.21-.68,1-1.22.5-2.09,3.53-5,8.22-8.06,14.41-8.62C282.4,20.68,284.36,20,285.91,21.15Z"/><path class="cls-108" d="M57.47,22.33c3.07.51,6-.89,9.23-.15C73.42,23.71,79.41,29.8,80,36.43A16.83,16.83,0,0,1,69.12,53.62c-8.81,3.53-19.21-2.26-21.51-10.53-1.43-1.29-.48-3.12-1-4.61a15.72,15.72,0,0,1,2.71-8.75c.55-.18.8.15,1,.59A9.37,9.37,0,0,1,50,33.16a7.79,7.79,0,0,0,4.14,8.4,7.63,7.63,0,0,0,9-1.72,8.6,8.6,0,0,0,.59-9.69c-1.76-2.67-5.21-3.77-8.71-2.78-1.09.31-2,1.08-3.27,1-.46-.15-.81-.37-.62-.94A15,15,0,0,1,57.47,22.33Z"/><path class="cls-110" d="M239.73,95.09a39.42,39.42,0,0,1-15.42,11.29c-5.84,2.23-10.91.34-15.28-3.82a12.09,12.09,0,0,1,5.65-7.26,4.24,4.24,0,0,1,2.13.8c5.34,3,13.47,1.2,16.95-3.8a4.44,4.44,0,0,0,.8-3.26c-.9-7.34-1.75-14.69-1.41-22.09.15-3.18-2.32-2.69-3.94-3.51a7.93,7.93,0,0,1-.71-.59c-7.23-1.77-11.35-10.39-9-16.89,1.83.72,1.29,2.56,1.8,3.88,1.39,3.59,3.81,6,7.64,6.63a8.76,8.76,0,0,0,8.61-3.56,9.28,9.28,0,0,0-6-14.84c-1-.16-2.39.3-2.86-1.23a13.63,13.63,0,0,1,16.16,7.6,13.46,13.46,0,0,1-5.58,16.94c-.64.4-1.32.74-2,1.11a131.51,131.51,0,0,0-.11,15.12,5.26,5.26,0,0,0,.2,3c.67,1.33-.14,2.85.51,4.19l.12,1c.48,1-.06,2.11.44,3.08C238.41,91.09,239.36,93,239.73,95.09Z"/><path class="cls-110" d="M145.44,102.11c-2.87,3.52-6.95,4.89-11.14,5-7.22.17-13.37-2.79-18.4-8a6.08,6.08,0,0,1,1.59-5.39c1.66-.52,2.71.7,3.86,1.46a23.28,23.28,0,0,0,8.84,4,9.78,9.78,0,0,0,5.87-.89c1.69-.73,1.79-1.71.81-3.14-6-8.77-9.52-18.61-12.52-28.67-.58-1.94-1.66-2.67-3.56-2.48a3.27,3.27,0,0,1-2.56-.81,13.46,13.46,0,0,1-10.47-9.2c-.58-2.08-1.38-4.14-.5-6.34l.46-1.18c1.91.38,1.54,2.15,1.94,3.36a9.29,9.29,0,0,0,15.1,4.31c3.19-2.72,3.76-6.17,2.68-9.91s-3.86-5.55-7.54-6.23c-1-.2-2.39.3-2.86-1.22a13.32,13.32,0,0,1,15.88,7c2.86,6.39.9,13.9-4.89,17.16-2.44,1.37-2.45,2.52-1.61,4.86,3.2,8.91,6.47,17.78,11.49,25.84C140.15,95.38,142.91,98.67,145.44,102.11Z"/><path class="cls-111" d="M255.81,164.42a319.2,319.2,0,0,0-40.27-7.94c-10.55-1.31-21.14-2.21-31.8-2.59-7-.26-14-.64-21-.32a365.35,365.35,0,0,0-37.49,3.14,290.11,290.11,0,0,0-35.66,7.55c-.23.06-.52-.11-.78-.17,0-.61,0-1.22,0-1.83q.32-.4.66-.78c7.52-3.09,15.42-4.84,23.32-6.53a261.36,261.36,0,0,1,39.74-5.31,300.27,300.27,0,0,1,99.15,10.55,14.59,14.59,0,0,1,3.74,1.48l.28,0C256.52,162.5,256.21,163.46,255.81,164.42Z"/><path class="cls-110" d="M255.35,161.67c-1.6.64-3-.38-4.35-.77a308.72,308.72,0,0,0-48.9-9.27,296.41,296.41,0,0,0-45.55-1.46A247.47,247.47,0,0,0,92.82,161c-1.2.37-2.4.71-3.6,1.06-.18-1-.7-2,.32-2.78l2-.69c.17-.24.34-.23.49,0A236.37,236.37,0,0,1,134.63,149a184.6,184.6,0,0,1,24.08-1.89c8.82,0,17.66-.25,26.47.09a257,257,0,0,1,29.42,3,309,309,0,0,1,37.84,8.43C253.75,159.33,255.63,159.47,255.35,161.67Z"/><path class="cls-109" d="M181.82,41.39c-3.09.57-6.18.93-9.26,0a19.44,19.44,0,0,1-15.09-13.51c-2.54-7.55-1.3-14.56,4.09-20.64a.43.43,0,0,1,.73.1c.24,1.28-.64,2.16-1.18,3.16a15.92,15.92,0,0,0,1.65,17.84,16.11,16.11,0,0,0,16.76,5c7.1-2.08,11.76-9.79,10.72-17.73-.92-7-7.57-12.69-14.92-12.79A15.58,15.58,0,0,0,166.21,5a3,3,0,0,1-2.15.65c-.34-.17-.39-.4-.16-.7C170.57-.49,178-1.42,185.71,2c8.16,3.66,12.33,10.36,12.35,19.38,0,1.23.49,2.7-.69,3.77-.84-.87-.68-2-.66-3,.06-2.83-.86-5.43-1.71-8.06,2.84,8.72-6.28,22-13.5,24.86,6.12-1.75,6.9-2.22,11.77-7.13.58-.58,1.07-1.45,2.15-.91A19.5,19.5,0,0,1,181.82,41.39Z"/><path class="cls-112" d="M255.08,133.11c-1.66,5.5-3.36,11-4.93,16.51-.42,1.48-.92,2-2.58,1.7-3.56-.76-7.24-.79-10.74-1.92q11-17.51,22-35c.77-1.21,1.48-2.45,2.21-3.68,1.1,0,.94.64.65,1.27a2,2,0,0,0-.13,2.07c.09,1.53,0,3-1.27,4.14-1.26.21-.61,1.47-1.16,2.08a20.75,20.75,0,0,0-.59,2.32c-.48,1.47-.54,3-1.09,4.5C256.6,129.05,256.81,131.47,255.08,133.11Z"/><path class="cls-113" d="M117,36.85c2,.9,4.28.31,6.34,1.5a10.41,10.41,0,0,1,5.16,11.49c-.82,3.92-5.87,7.73-10.14,7.66A10.57,10.57,0,0,1,108.9,50c-.32-1.16-.17-2.51-1.18-3.44-.78-1.58.58-2.48,1.23-3.52C110.85,40,113.25,37.48,117,36.85Z"/><path class="cls-113" d="M228.68,36.84c3.17.55,6.29.87,8.74,3.57,3.91,4.33,3.87,10.3-.47,14.34-4.09,3.8-10.16,3.35-14.13-.75-2.26-2.32-2.28-5.34-3.33-8a6,6,0,0,1,2.24-4.16c.83.73.61,1.75.76,2.67a4.21,4.21,0,0,0,4.24,3.85,4.49,4.49,0,0,0,4.53-3.25,4.65,4.65,0,0,0-2.5-5.28c-1-.55-2.57-.23-2.93-1.81C226.8,37.65,227.46,36.54,228.68,36.84Z"/><path class="cls-114" d="M118.23,63.26l2.79.11a3.39,3.39,0,0,1,.86,2.93c-.74,8.3-1.3,16.62-3,24.8a5.18,5.18,0,0,1-1.3,2.82l-1.68,5.21c-1.55-.11-2.28-1.53-3.46-2.21,2.1-3.55,2.3-7.6,3-11.5A150.08,150.08,0,0,0,118.23,63.26Z"/><path class="cls-115" d="M195.42,30.94c-2.35,1.78-3.87,4.46-6.53,5.93s-5.53,2.94-9.13,2.64c9.85-6.08,15.94-14,14.93-26.24,2.83,3.73,2.93,7.78,2.68,11.91C196.55,27,197.09,29.36,195.42,30.94Z"/><path class="cls-116" d="M225.83,38c1.06.35,2.15.65,3.18,1.08a5.35,5.35,0,0,1,3,6.44,5.58,5.58,0,0,1-5.55,3.67,4.89,4.89,0,0,1-4.75-5.07c0-.76,0-1.53,0-2.3A7.36,7.36,0,0,1,225.83,38Z"/><path class="cls-117" d="M228.5,62.85l.65,0c1.07,1.06.4,2.19,0,3.22A139.74,139.74,0,0,1,216.45,93.5a6.24,6.24,0,0,1-2.23,2.19L209,102.56c-.63-.31-1.43-.42-1.67-1.25,1.56-.26,2-1.69,2.76-2.73C218.12,87.64,223.69,75.43,228.5,62.85Z"/><path class="cls-118" d="M84,104.36c-.85.63-.42,1.59-.61,2.4-.24.13-.4.07-.46-.21l0,.08c-.63-1.69-.75-3.51-1.21-5.24l0,0c-1.1-3-1.56-6.07-2.4-9.09-1.09-1.29-.25-2.84-.59-4.22a1.36,1.36,0,0,1,.06-.29c.13-.3.38-.49.5-.07q2.07,6.88,4.08,13.79C83.74,102.47,83.86,103.42,84,104.36Z"/><path class="cls-119" d="M255.08,133.11c.6-2.1,1.2-4.21,1.79-6.31.56-.23.84.09,1.06.53a4.45,4.45,0,0,1-.79,3c-.06.72-.11,1.44-.17,2.16-.61.93.18,2.13-.6,3l0-.06c-.08.25-.23.33-.47.2C255.67,134.81,256.16,133.7,255.08,133.11Z"/><path class="cls-120" d="M285.91,21.15A10.43,10.43,0,0,1,280.74,20c2.57-.29,5.14-.55,7.63.48C287.54,20.65,286.56,20.26,285.91,21.15Z"/><path class="cls-121" d="M257.73,127.68l-.86-.88c.47-1.5.93-3,1.39-4.5.5-.1.82,0,.53.59,0,.72,0,1.45-.07,2.17C258,125.79,259.09,127.2,257.73,127.68Z"/><path class="cls-122" d="M46.56,38.48l1,4.61c-.73.48-.51,1.28-.65,1.95A12.93,12.93,0,0,1,46.56,38.48Z"/><path class="cls-123" d="M261.6,114c-1.65-.89.86-2.42-.52-3.34.39-.61.28-1.87,1.61-1.2a3.46,3.46,0,0,1-.72,2.89Z"/><path class="cls-124" d="M51.05,27.42l.75.71c-.09,1.19-.47,2.14-1.85,2.28l-.68-.68A3.73,3.73,0,0,1,51.05,27.42Z"/><path class="cls-125" d="M258.89,120c.63-.48-.48-2.35,1.44-1.8-.73.64-.05,1.84-1,2.42A1,1,0,0,1,258.89,120Z"/><path class="cls-126" d="M162.18,7.24h-.62A4.37,4.37,0,0,1,163.9,5a3.25,3.25,0,0,1,0,.54C164,6.81,163.46,7.37,162.18,7.24Z"/><path class="cls-127" d="M258.89,120l.48.62c-.06.8.22,1.68-.58,2.29l-.53-.59Z"/><path class="cls-112" d="M105.89,148.8c-2.61.64-5.25,1.19-7.83,1.94-1.49.43-2.15.35-2.57-1.41C92.33,135.87,89,122.44,85.79,109c-.38-.67-.43-1.18.57-1.17q9.26,18.87,18.51,37.76C105.36,146.6,106.19,147.53,105.89,148.8Z"/><path class="cls-128" d="M185.86,73.73c-.69.41-.54,1.09-.58,1.72-1.27-2-.94-4.34-1.52-6.5C184.85,70.4,185.85,71.85,185.86,73.73Z"/><path class="cls-129" d="M165.05,87a1.25,1.25,0,0,0-.6-1.18q.92-2.1,1.82-4.22l.59.24Z"/><path class="cls-130" d="M86.36,107.83,85.79,109c-1.09-.86-1-2.28-1.6-3.36C85.94,105.36,86.15,106.59,86.36,107.83Z"/><path class="cls-111" d="M223.65,186.9c-4.45-.57-8.93-1-13.33-1.77a103.52,103.52,0,0,0-14.53-1.46c-7.47-.3-15-1.26-22.44-.67-11.44.89-22.94.67-34.38,2.09-7.41.92-14.72,2.24-22.06,3.55a14,14,0,0,1-1.72.06c-1-7.89-2.13-15.76-2.79-23.68,1.66-.83,3.51-.83,5.29-1.11-.46,3.85,1.15,7.36,1.81,11,.49,2.74,1.45,5.38,2,8.74-.29-6.19.38-11.8-.51-17.38a3.42,3.42,0,0,1,.65-3,88.4,88.4,0,0,1,15.69-2.8c10.27-1.21,20.61-2.17,30.94-1.74,11.36.48,22.73.92,34,2.66,5.37.83,10.78,1.33,16.1,2.49a4.21,4.21,0,0,1,1.26,2.22c1.37,6.27,2.88,12.51,4.1,18.81A2.56,2.56,0,0,1,223.65,186.9Z"/><path class="cls-108" d="M222.26,164.47l18,3.54c1.57.31,2.55,1,2.35,2.9-.67,6.42-2.35,12.38-7.08,17.12a3,3,0,0,1-3.58.92c-2.57-1-5.46-.72-7.94-2.07-.93-6.52-1.48-13.09-2.06-19.65C221.83,166.28,221.6,165.32,222.26,164.47Z"/><path class="cls-108" d="M107.22,191.08c-1.58,1-3.48.9-5.16,1.56-.79.32-1.38-.06-2-.72a27.71,27.71,0,0,1-7.31-18.24c-.12-4,.47-4.56,4.34-5.17,2.07-.33,4-1.36,6.18-1.13a4.4,4.4,0,0,1,1.22,2.84C105.36,177.18,106.16,184.15,107.22,191.08Z"/><path class="cls-112" d="M107.22,191.08c-1.33-.25-1.13-1.34-1.24-2.26q-1.33-10.73-2.68-21.44l9.1-2.36c1.59,1.72,1.08,3.95,1.36,6,.74,5.2,1.35,10.41,2,15.62a2.17,2.17,0,0,1-.6,2.1C112.39,189,109.88,190.32,107.22,191.08Z"/><path class="cls-131" d="M121.64,163.3c.73,7.53.34,15.09.53,22.65-1.15,0-1-.85-1.12-1.43-1.45-5.94-2.87-11.89-4.36-17.83-.31-1.23-.44-2.25,1-2.78Z"/><path class="cls-132" d="M222.26,164.47c.75,7,1.52,14.08,2.24,21.13,0,.41-.34.85-.52,1.28l-.17,0-.16,0q-2.64-11.49-5.27-23Z"/><path class="cls-115" d="M80,26.9c5.69,4.17,7.2,10.07,6.21,16.58-.85,5.6-4.06,9.9-9.61,13.23,6.76-9.69,7.61-19.22,2.78-29.2C79.24,26.94,79.47,26.76,80,26.9Z"/><path class="cls-133" d="M80,26.9l-.62.61a2.7,2.7,0,0,1-1.55-2.05A2.58,2.58,0,0,1,80,26.9Z"/><path class="cls-115" d="M302.13,39c.86,7.43-1.5,13.44-8,17.44a20.19,20.19,0,0,1-12.41,2.74c-.5,0-.94-.2-1.08-.65C290.68,55.44,298.51,50,301,39A.75.75,0,0,1,302.13,39Z"/><path class="cls-134" d="M302.13,39H301c.08-.81-.28-1.68.32-2.48C302.52,37.1,302,38.17,302.13,39Z"/><path class="cls-112" d="M277.36,39.11a8.26,8.26,0,0,1-8.21-8.23,8.12,8.12,0,0,1,8.27-8.15,8,8,0,0,1,8,8.06A8.09,8.09,0,0,1,277.36,39.11Z"/><path class="cls-112" d="M50,30.41l1.85-2.28c3.2-2.2,6.57-2.82,10-.74,3,1.81,4.14,4.67,3.86,8.13a8.18,8.18,0,0,1-9.18,7.53,8.45,8.45,0,0,1-7.44-9.34A7.39,7.39,0,0,1,50,30.41Z"/><path class="cls-113" d="M214.22,95.69a137,137,0,0,0,14.53-30.64,3.92,3.92,0,0,0,.4-2.23c1.48.3,3.52.12,4.31,1,1.16,1.33.41,3.5.42,5.3a120.07,120.07,0,0,0,1.69,20.31c.32,1.8-.68,3-1.71,4.08a19.07,19.07,0,0,1-9.26,5,9.14,9.14,0,0,1-8.36-1.84A2.94,2.94,0,0,0,214.22,95.69Z"/><path class="cls-113" d="M117.58,93.92c.86-6,2.17-12,2.54-18,.25-4.17,1-8.3.9-12.5,2.41-.59,3.42.6,4,2.81,3,10.38,6.69,20.46,13,29.39,1,1.4.94,2.12-.72,3.06-4.72,2.67-9,1.48-13.35-.87C121.77,96.57,120,94.65,117.58,93.92Z"/><path class="cls-108" d="M162.18,7.24a3.7,3.7,0,0,0,1.72-1.73,17.71,17.71,0,0,1,15-3.12A15.31,15.31,0,0,1,190.9,15c1.33,6.94-1.13,12.81-7.09,17-9.29,6.54-23.66.83-25.24-11.29C157.9,15.54,159.55,11.34,162.18,7.24Z"/><path class="cls-116" d="M117.45,37.88a5.4,5.4,0,0,1,5.36,5.26,5.67,5.67,0,0,1-5.16,5.53c-2.79.08-5.79-2.67-5.79-5.31A5.92,5.92,0,0,1,117.45,37.88Z"/><path class="cls-112" d="M170.15,4.84a8.28,8.28,0,0,1,8.46,8.37A8.29,8.29,0,0,1,170,21.72a8.18,8.18,0,0,1-8.35-8.45C161.94,7.87,164.54,5.09,170.15,4.84Z"/></g></g></svg>